<svg width="13" height="13" viewBox="0 0 13 13" fill="none" xmlns="http://www.w3.org/2000/svg">
<path fill-rule="evenodd" clip-rule="evenodd" d="M9.19866 11.0662C9.11917 11.0662 9.03918 11.0476 8.96573 11.0094L6.40051 9.66915L3.8358 11.0094C3.66575 11.0974 3.4605 11.0823 3.30655 10.9696C3.1516 10.8569 3.07463 10.6663 3.10733 10.4776L3.59582 7.64625L1.52312 5.64147C1.38528 5.50815 1.33547 5.30792 1.39433 5.1248C1.45319 4.94268 1.61066 4.80937 1.80082 4.7822L4.6684 4.36565L5.95025 1.78685C6.1203 1.44475 6.68123 1.44475 6.85127 1.78685L8.13313 4.36565L11.0007 4.7822C11.1909 4.80937 11.3483 4.94268 11.4072 5.1248C11.4661 5.30792 11.4163 5.50815 11.2784 5.64147L9.2057 7.64625L9.6942 10.4776C9.7269 10.6663 9.64942 10.8569 9.49498 10.9696C9.40744 11.034 9.3033 11.0662 9.19866 11.0662Z" fill="black"/>
<mask id="mask0_174_272" style="mask-type:luminance" maskUnits="userSpaceOnUse" x="1" y="1" width="11" height="11">
<path fill-rule="evenodd" clip-rule="evenodd" d="M9.19866 11.0662C9.11917 11.0662 9.03918 11.0476 8.96573 11.0094L6.40051 9.66915L3.8358 11.0094C3.66575 11.0974 3.4605 11.0823 3.30655 10.9696C3.1516 10.8569 3.07463 10.6663 3.10733 10.4776L3.59582 7.64625L1.52312 5.64147C1.38528 5.50815 1.33547 5.30792 1.39433 5.1248C1.45319 4.94268 1.61066 4.80937 1.80082 4.7822L4.6684 4.36565L5.95025 1.78685C6.1203 1.44475 6.68123 1.44475 6.85127 1.78685L8.13313 4.36565L11.0007 4.7822C11.1909 4.80937 11.3483 4.94268 11.4072 5.1248C11.4661 5.30792 11.4163 5.50815 11.2784 5.64147L9.2057 7.64625L9.6942 10.4776C9.7269 10.6663 9.64942 10.8569 9.49498 10.9696C9.40744 11.034 9.3033 11.0662 9.19866 11.0662Z" fill="white"/>
</mask>
<g mask="url(#mask0_174_272)">
<rect x="0.363708" y="0.500977" width="12.074" height="12.074" fill="#EBEBEB"/>
</g>
</svg>
