<svg width="8" height="9" viewBox="0 0 8 9" fill="none" xmlns="http://www.w3.org/2000/svg">
<g id="Icon/Fill/star">
<path id="Mask" fill-rule="evenodd" clip-rule="evenodd" d="M5.60149 7.31408C5.5524 7.31408 5.50299 7.30258 5.45763 7.27897L3.87339 6.45127L2.28945 7.27897C2.18443 7.33334 2.05767 7.32402 1.96259 7.25442C1.8669 7.18483 1.81936 7.06707 1.83956 6.95056L2.14125 5.20196L0.861171 3.96383C0.77604 3.88149 0.745281 3.75783 0.781633 3.64474C0.817984 3.53227 0.915233 3.44993 1.03268 3.43315L2.80365 3.1759L3.59531 1.58326C3.70033 1.37199 4.04675 1.37199 4.15177 1.58326L4.94343 3.1759L6.71441 3.43315C6.83185 3.44993 6.9291 3.53227 6.96545 3.64474C7.0018 3.75783 6.97104 3.88149 6.88591 3.96383L5.60584 5.20196L5.90752 6.95056C5.92772 7.06707 5.87987 7.18483 5.78449 7.25442C5.73043 7.29419 5.66611 7.31408 5.60149 7.31408Z" fill="black"/>
<mask id="mask0_176_450" style="mask-type:luminance" maskUnits="userSpaceOnUse" x="0" y="1" width="7" height="7">
<path id="Mask_2" fill-rule="evenodd" clip-rule="evenodd" d="M5.60149 7.31408C5.5524 7.31408 5.50299 7.30258 5.45763 7.27897L3.87339 6.45127L2.28945 7.27897C2.18443 7.33334 2.05767 7.32402 1.96259 7.25442C1.8669 7.18483 1.81936 7.06707 1.83956 6.95056L2.14125 5.20196L0.861171 3.96383C0.77604 3.88149 0.745281 3.75783 0.781633 3.64474C0.817984 3.53227 0.915233 3.44993 1.03268 3.43315L2.80365 3.1759L3.59531 1.58326C3.70033 1.37199 4.04675 1.37199 4.15177 1.58326L4.94343 3.1759L6.71441 3.43315C6.83185 3.44993 6.9291 3.53227 6.96545 3.64474C7.0018 3.75783 6.97104 3.88149 6.88591 3.96383L5.60584 5.20196L5.90752 6.95056C5.92772 7.06707 5.87987 7.18483 5.78449 7.25442C5.73043 7.29419 5.66611 7.31408 5.60149 7.31408Z" fill="white"/>
</mask>
<g mask="url(#mask0_176_450)">
<g id="&#240;&#159;&#142;&#168; Color">
<rect id="Base" x="0.145508" y="0.789062" width="7.45674" height="7.45674" fill="#00AC4E"/>
</g>
</g>
</g>
</svg>
